<svg width="22" height="18" viewBox="0 0 22 18" fill="none" xmlns="http://www.w3.org/2000/svg">
<path d="M19.846 9.90088H1.12601C0.927095 9.90088 0.736329 9.82187 0.595676 9.68121C0.455024 9.54056 0.376007 9.34979 0.376007 9.15088C0.376007 8.95197 0.455024 8.76121 0.595676 8.62056C0.736329 8.47991 0.927095 8.40088 1.12601 8.40088H19.846C20.0449 8.40088 20.2357 8.47991 20.3763 8.62056C20.517 8.76121 20.596 8.95197 20.596 9.15088C20.596 9.34979 20.517 9.54056 20.3763 9.68121C20.2357 9.82187 20.0449 9.90088 19.846 9.90088Z" fill="white"/>
<path d="M12.8641 1.38897C13.0048 1.24832 13.1955 1.1693 13.3944 1.1693C13.5933 1.1693 13.7841 1.24832 13.9248 1.38897L21.1563 8.62055C21.297 8.7612 21.376 8.95197 21.376 9.15088C21.376 9.34979 21.297 9.54056 21.1563 9.68121L13.9248 16.9128C13.7841 17.0534 13.5933 17.1325 13.3944 17.1325C13.1955 17.1325 13.0048 17.0534 12.8641 16.9128C12.7235 16.7721 12.6444 16.5814 12.6444 16.3825C12.6444 16.1835 12.7235 15.9928 12.8641 15.8521L19.5654 9.15088L12.8641 2.44963C12.7235 2.30898 12.6444 2.11821 12.6444 1.9193C12.6444 1.72039 12.7235 1.52962 12.8641 1.38897Z" fill="white"/>
</svg>
