<svg width="48" height="48" viewBox="0 0 48 48" fill="none" xmlns="http://www.w3.org/2000/svg">
<path d="M5.81203 41.2415H2.77736C1.51869 41.2415 0.753357 40.3574 0.753357 39.2041V16.8014C0.753357 15.7121 1.36802 14.9894 2.29869 14.8081" stroke="#081B4D" stroke-width="1.5" stroke-miterlimit="79.8403" stroke-linecap="round" stroke-linejoin="round"/>
<path d="M26.4373 14.7641H34.0906C36.312 14.7854 38.0053 15.7948 39.148 17.8201L43.1947 24.9481L46.228 29.0201C46.8426 29.4868 47.2413 30.1161 47.2413 31.0575V39.2041C47.1186 40.6641 46.4013 41.2828 45.2173 41.2415" stroke="#081B4D" stroke-width="1.5" stroke-miterlimit="79.8403" stroke-linecap="round" stroke-linejoin="round"/>
<path d="M15.9133 41.2415H35.252" stroke="#081B4D" stroke-width="1.5" stroke-miterlimit="79.8403" stroke-linecap="round" stroke-linejoin="round"/>
<path d="M33 18V25C33.0293 25.7307 33.3947 26.152 33.8933 26.4453L35.8893 27.4426C36.9253 27.9146 37.6053 28 39 28H41" stroke="#081B4D" stroke-width="1.5" stroke-miterlimit="79.8403" stroke-linecap="round" stroke-linejoin="round"/>
<path d="M47.256 32.7507H43.7427" stroke="#081B4D" stroke-width="1.5" stroke-miterlimit="79.8403" stroke-linecap="round" stroke-linejoin="round"/>
<path fill-rule="evenodd" clip-rule="evenodd" d="M10.4973 35.7467C13.1186 35.7467 15.248 37.8774 15.248 40.5014C15.248 43.1254 13.1186 45.2561 10.4973 45.2561C7.87598 45.2561 5.74664 43.1254 5.74664 40.5014C5.74664 37.8774 7.87598 35.7467 10.4973 35.7467Z" stroke="#081B4D" stroke-width="1.5" stroke-miterlimit="79.8403"/>
<path fill-rule="evenodd" clip-rule="evenodd" d="M40.4973 35.7467C43.1186 35.7467 45.248 37.8774 45.248 40.5014C45.248 43.1254 43.1186 45.2561 40.4973 45.2561C37.876 45.2561 35.7466 43.1254 35.7466 40.5014C35.7466 37.8774 37.876 35.7467 40.4973 35.7467Z" stroke="#081B4D" stroke-width="1.5" stroke-miterlimit="79.8403"/>
<path fill-rule="evenodd" clip-rule="evenodd" d="M8.74799 9.00806V24.9988C8.74799 26.2414 9.75732 27.2507 11 27.2507H21.9987C23.2413 27.2507 24.2507 26.2414 24.2507 24.9988V9.00806C24.2507 7.76539 23.2413 6.7561 21.9987 6.7561H11C9.75732 6.7561 8.74799 7.76539 8.74799 9.00806Z" stroke="#081B4D" stroke-width="1.5" stroke-miterlimit="79.8403"/>
<path d="M18.4067 6.62141L18.0507 4.61075C17.836 3.38675 16.6667 2.56809 15.4427 2.78409L4.61069 4.69344C3.38669 4.90944 2.56802 6.07873 2.78402 7.30273L5.56135 23.0494C5.77735 24.2734 6.94535 25.0921 8.16935 24.8774L8.64003 24.7948" stroke="#081B4D" stroke-width="1.5" stroke-miterlimit="79.8403" stroke-linecap="round" stroke-linejoin="round"/>
<path d="M15 16L23 8" stroke="#081B4D" stroke-width="1.50133" stroke-miterlimit="79.8403" stroke-linecap="round" stroke-linejoin="round"/>
<path d="M14 22L20 16" stroke="#081B4D" stroke-width="1.5" stroke-miterlimit="79.8403" stroke-linecap="round" stroke-linejoin="round"/>
</svg>
