<svg width="18" height="15" viewBox="0 0 18 15" fill="none" xmlns="http://www.w3.org/2000/svg">
<path d="M1.8578 5.6L7.3118 11.426L4.6858 5.6H1.8578ZM8.9668 12.359L12.0228 5.6H5.9108L8.9668 12.359ZM4.7118 4.483L6.5018 1.121H4.2018L1.6818 4.483H4.7118ZM10.6218 11.426L16.0758 5.6H13.2478L10.6218 11.426ZM5.9808 4.483H11.9518L10.1658 1.121H7.7658L5.9808 4.483ZM13.2218 4.483H16.2508L13.7298 1.121H11.4358L13.2218 4.483ZM14.4568 0.228005L17.8188 4.71C17.8989 4.81446 17.9394 4.94394 17.9329 5.07542C17.9265 5.2069 17.8737 5.33184 17.7838 5.428L9.3788 14.394C9.3256 14.4495 9.26171 14.4937 9.191 14.5239C9.12028 14.554 9.04419 14.5696 8.9673 14.5696C8.89041 14.5696 8.81432 14.554 8.7436 14.5239C8.67288 14.4937 8.609 14.4495 8.5558 14.394L0.1498 5.428C0.0599169 5.33184 0.00706884 5.2069 0.000659815 5.07542C-0.00574921 4.94394 0.0346965 4.81446 0.1148 4.71L3.4778 0.228005C3.52632 0.154913 3.59283 0.0955421 3.67095 0.0556096C3.74906 0.0156771 3.83614 -0.00347241 3.9238 4.91281e-06H14.0098C14.0975 -0.00347241 14.1845 0.0156771 14.2627 0.0556096C14.3408 0.0955421 14.4083 0.154913 14.4568 0.228005Z" fill="#081B4D"/>
</svg>
