<svg width="23" height="20" viewBox="0 0 23 20" fill="none" xmlns="http://www.w3.org/2000/svg">
<path d="M20.3995 1.81892C19.8261 1.24245 19.1444 0.784997 18.3936 0.472845C17.6428 0.160694 16.8377 0 16.0245 0C15.2114 0 14.4063 0.160694 13.6555 0.472845C12.9047 0.784997 12.223 1.24245 11.6495 1.81892L1.61954 11.7609C0.757976 12.6715 0.285079 13.882 0.301179 15.1355C0.317279 16.389 0.821109 17.5869 1.70578 18.4751C2.59045 19.3633 3.78636 19.8718 5.03978 19.8929C6.2932 19.914 7.50552 19.4459 8.41954 18.5879L18.4495 8.64492C18.7782 8.32766 19.0404 7.94816 19.221 7.52855C19.4015 7.10893 19.4968 6.65759 19.5012 6.2008C19.5055 5.74401 19.419 5.29092 19.2465 4.86792C19.0741 4.44492 18.8191 4.06046 18.4966 3.73695C18.1741 3.41344 17.7904 3.15735 17.368 2.98359C16.9455 2.80982 16.4927 2.72187 16.0359 2.72484C15.5791 2.72782 15.1275 2.82166 14.7073 3.00091C14.2871 3.18017 13.9068 3.44124 13.5885 3.76892L6.04854 11.3329C5.9251 11.463 5.85725 11.6361 5.85942 11.8155C5.8616 11.9948 5.93362 12.1663 6.06018 12.2933C6.18674 12.4204 6.35787 12.4931 6.5372 12.4961C6.71653 12.499 6.88993 12.4318 7.02054 12.3089L14.5615 4.74392C14.9496 4.35644 15.4756 4.13896 16.024 4.13934C16.5723 4.13971 17.0981 4.35791 17.4855 4.74592C17.873 5.13393 18.0905 5.65998 18.0901 6.20833C18.0897 6.75669 17.8716 7.28244 17.4835 7.66992L7.45354 17.6129C6.80694 18.2575 5.93076 18.6189 5.01774 18.6175C4.10472 18.6161 3.22965 18.252 2.58504 17.6054C1.94043 16.9588 1.57909 16.0826 1.58049 15.1696C1.5819 14.2566 1.94594 13.3815 2.59254 12.7369L12.5245 2.89092C13.43 1.9893 14.6565 1.48415 15.9344 1.48651C17.2122 1.48888 18.4368 1.99855 19.3389 2.90351C20.2411 3.80846 20.747 5.03462 20.7454 6.31245C20.7439 7.59028 20.2349 8.81519 19.3305 9.71792L11.8875 17.1849C11.7582 17.3138 11.6855 17.4888 11.6852 17.6714C11.6849 17.8539 11.7571 18.0291 11.886 18.1584C12.0149 18.2877 12.1899 18.3605 12.3725 18.3608C12.555 18.3611 12.7302 18.2888 12.8595 18.1599L20.3995 10.5959C21.5606 9.4305 22.2125 7.85248 22.2125 6.20742C22.2125 4.56236 21.5606 2.98434 20.3995 1.81892Z" fill="white"/>
</svg>
