<svg width="30" height="16" viewBox="0 0 30 16" fill="none" xmlns="http://www.w3.org/2000/svg">
<path d="M29.25 3.25H0.75C0.335786 3.25 0 3.58579 0 4C0 4.41421 0.335786 4.75 0.75 4.75H29.25C29.6642 4.75 30 4.41421 30 4C30 3.58579 29.6642 3.25 29.25 3.25Z" fill="#081B4D"/>
<path d="M29.25 11.25H0.75C0.335786 11.25 0 11.5858 0 12C0 12.4142 0.335786 12.75 0.75 12.75H29.25C29.6642 12.75 30 12.4142 30 12C30 11.5858 29.6642 11.25 29.25 11.25Z" fill="#081B4D"/>
<path d="M21.7388 7.5C23.8098 7.5 25.4888 5.82107 25.4888 3.75C25.4888 1.67893 23.8098 0 21.7388 0C19.6677 0 17.9888 1.67893 17.9888 3.75C17.9888 5.82107 19.6677 7.5 21.7388 7.5Z" fill="white"/>
<path d="M21.7388 6.75C23.3956 6.75 24.7388 5.40685 24.7388 3.75C24.7388 2.09315 23.3956 0.75 21.7388 0.75C20.0819 0.75 18.7388 2.09315 18.7388 3.75C18.7388 5.40685 20.0819 6.75 21.7388 6.75Z" stroke="#081B4D" stroke-width="1.5"/>
<path d="M9.26123 15.5C11.3323 15.5 13.0112 13.8211 13.0112 11.75C13.0112 9.67893 11.3323 8 9.26123 8C7.19016 8 5.51123 9.67893 5.51123 11.75C5.51123 13.8211 7.19016 15.5 9.26123 15.5Z" fill="white"/>
<path d="M9.26123 14.75C10.9181 14.75 12.2612 13.4069 12.2612 11.75C12.2612 10.0931 10.9181 8.75 9.26123 8.75C7.60438 8.75 6.26123 10.0931 6.26123 11.75C6.26123 13.4069 7.60438 14.75 9.26123 14.75Z" stroke="#081B4D" stroke-width="1.5"/>
</svg>
