<svg width="48" height="48" viewBox="0 0 48 48" fill="none" xmlns="http://www.w3.org/2000/svg">
<path fill-rule="evenodd" clip-rule="evenodd" d="M13.9693 38.0094L41.0107 38.0001C42.7973 38.0001 44.248 36.5494 44.248 34.7628V6.98812C44.248 5.20145 42.7973 3.75073 41.0107 3.75073H6.98534C5.19867 3.75073 3.748 5.20145 3.748 6.98812L3.744 44.0001C3.744 45.9294 5.70534 46.0814 6.82267 45.0001L13.9693 38.0094Z" stroke="#081B4D" stroke-width="1.5" stroke-miterlimit="79.8403"/>
<path d="M14.7427 30.2651C14.5853 28.8611 14.7933 27.8905 15.7707 27.3345C16.8187 26.6838 19.196 26.0945 20.9147 25.3812C22.272 24.7172 21.9573 23.9012 20.9147 22.4505C20.0733 21.2305 19.0653 19.9332 19.0653 17.1838C19.056 14.6412 20.8213 11.7065 24 11.7065C27.1787 11.7065 28.944 14.6412 28.9347 17.1838C28.9347 19.9332 27.9267 21.2305 27.0853 22.4505C26.0427 23.9012 25.728 24.7172 27.0853 25.3812C28.804 26.0945 31.1813 26.6838 32.2293 27.3345C33.2067 27.8905 33.4147 28.8611 33.2573 30.2651" stroke="#081B4D" stroke-width="1.5" stroke-miterlimit="79.8403" stroke-linecap="round" stroke-linejoin="round"/>
</svg>
