<svg width="48" height="48" viewBox="0 0 48 48" fill="none" xmlns="http://www.w3.org/2000/svg">
<path fill-rule="evenodd" clip-rule="evenodd" d="M21.7322 28.2798C20.2709 25.0798 18.3922 22.2266 16.0176 19.0132C14.5042 17.3599 13.4922 15.2132 13.2536 12.8132C12.6602 6.87988 16.9936 1.58655 22.9256 0.986549C28.8589 0.399882 34.1549 4.73323 34.7469 10.6666C35.0642 13.8399 33.9749 16.8266 31.9856 19.0132C29.6082 22.2266 27.7296 25.0798 26.2682 28.2798C25.9416 29.0932 24.9962 30.0399 24.0002 30.0132C23.0042 30.0399 22.0589 29.0932 21.7322 28.2798Z" stroke="#081B4D" stroke-width="1.5" stroke-miterlimit="79.8403"/>
<path d="M29.0156 11.2455C29.2925 14.0152 27.2716 16.4849 24.5019 16.7617C21.7321 17.0385 19.2624 15.0176 18.9856 12.2479C18.7088 9.47821 20.7297 7.0085 23.4994 6.73167C26.2691 6.45485 28.7388 8.47573 29.0156 11.2455Z" stroke="#081B4D" stroke-width="1.5" stroke-miterlimit="79.8403"/>
<path d="M14.0004 22L7.00043 26C4.91909 27.2133 5.00043 28 5.00043 30V34" stroke="#081B4D" stroke-width="1.5" stroke-miterlimit="79.8403" stroke-linecap="round" stroke-linejoin="round"/>
<path d="M8.97805 37.6027C9.19743 39.8001 7.59386 41.7594 5.39638 41.9788C3.1989 42.1981 1.23965 40.5946 1.02027 38.3971C0.80089 36.1996 2.40446 34.2404 4.60193 34.021C6.79941 33.8016 8.75867 35.4052 8.97805 37.6027Z" stroke="#081B4D" stroke-width="1.5" stroke-miterlimit="79.8403"/>
<path d="M34 22L41 26C43.0813 27.2133 43 28 43 30V34" stroke="#081B4D" stroke-width="1.5" stroke-miterlimit="79.8403" stroke-linecap="round" stroke-linejoin="round"/>
<path d="M46.9785 38.3971C46.7591 40.5946 44.7999 42.1982 42.6024 41.9788C40.4049 41.7594 38.8014 39.8001 39.0207 37.6027C39.2401 35.4052 41.1994 33.8016 43.3969 34.021C45.5943 34.2404 47.1979 36.1996 46.9785 38.3971Z" stroke="#081B4D" stroke-width="1.5" stroke-miterlimit="79.8403"/>
<path d="M27.9785 43.3971C27.7591 45.5946 25.7999 47.1982 23.6024 46.9788C21.4049 46.7594 19.8014 44.8001 20.0207 42.6027C20.2401 40.4052 22.1994 38.8016 24.3969 39.021C26.5943 39.2404 28.1979 41.1996 27.9785 43.3971Z" stroke="#081B4D" stroke-width="1.5" stroke-miterlimit="79.8403"/>
<path d="M24 33V38" stroke="#081B4D" stroke-width="1.5" stroke-miterlimit="79.8403" stroke-linecap="round" stroke-linejoin="round"/>
</svg>
