<svg width="48" height="48" viewBox="0 0 48 48" fill="none" xmlns="http://www.w3.org/2000/svg">
<path d="M24 20C20 20 18 16 18 11C18 6 19 3 24 3" stroke="#081B4D" stroke-width="1.5" stroke-miterlimit="79.8403" stroke-linecap="round" stroke-linejoin="round"/>
<path d="M24 20C28 20 30 16 30 11C30 6 29 3 24 3" stroke="#081B4D" stroke-width="1.5" stroke-miterlimit="79.8403" stroke-linecap="round" stroke-linejoin="round"/>
<path d="M20.9038 19.2133C20.6718 20.16 20.2398 20.8532 19.3411 20.9599L14.3411 22.4666C11.9091 23.3199 10.2851 24.9199 10.5291 28.2799V38.3466L24.2784 46.0266" stroke="#081B4D" stroke-width="1.5" stroke-miterlimit="79.8403" stroke-linecap="round" stroke-linejoin="round"/>
<path d="M27.653 19.2133C27.885 20.16 28.317 20.8532 29.2157 20.9599L34.2157 22.4666C36.6477 23.3199 38.2717 24.9199 38.0277 28.2799V38.3466L24.2783 46.0266" stroke="#081B4D" stroke-width="1.5" stroke-miterlimit="79.8403" stroke-linecap="round" stroke-linejoin="round"/>
<path d="M19.5576 21.48C22.499 23.7334 26.059 23.8534 28.9976 21.48" stroke="#081B4D" stroke-width="1.5" stroke-miterlimit="79.8403" stroke-linecap="round" stroke-linejoin="round"/>
<path d="M23.9971 23.7599V25.1466" stroke="#081B4D" stroke-width="1.5" stroke-miterlimit="79.8403" stroke-linecap="round" stroke-linejoin="round"/>
<path d="M23.9971 27.7599V38.1066" stroke="#081B4D" stroke-width="1.5" stroke-miterlimit="79.8403" stroke-linecap="round" stroke-linejoin="round"/>
<path d="M18.2178 10.96C20.6938 10.68 23.0538 10.2001 24.7791 7.72005L24.7178 10.2134C25.9911 9.97338 27.2391 9.68005 28.1551 8.72005" stroke="#081B4D" stroke-width="1.5" stroke-miterlimit="79.8403" stroke-linecap="round" stroke-linejoin="round"/>
<path d="M36.4483 19.5734C33.9669 19.2134 32.7256 16.4933 32.7256 13.16C32.7256 9.58666 33.4416 7.43994 37.0243 7.43994C40.6056 7.43994 41.3229 9.58666 41.3229 13.16C41.3229 15.4 40.7629 17.36 39.6443 18.52L39.6949 19.0133C39.8603 19.68 40.1016 20.0533 40.7603 20.3066L44.3429 21.3867C46.0856 21.9867 47.2483 23.1467 47.0736 25.5467V33.32L40.8043 36.8267" stroke="#081B4D" stroke-width="1.5" stroke-miterlimit="79.8403" stroke-linecap="round" stroke-linejoin="round"/>
<path d="M11.7335 19.5734C14.2148 19.2134 15.4561 16.4933 15.4561 13.16C15.4561 9.58666 14.7401 7.43994 11.1575 7.43994C7.57615 7.43994 6.85881 9.58666 6.85881 13.16C6.85881 15.4 7.41881 17.36 8.53748 18.52L8.48681 19.0133C8.32148 19.68 8.08015 20.0533 7.42148 20.3066L3.83881 21.3867C2.09615 21.9867 0.93348 23.1467 1.10815 25.5467V33.32L7.37748 36.8267" stroke="#081B4D" stroke-width="1.5" stroke-miterlimit="79.8403" stroke-linecap="round" stroke-linejoin="round"/>
</svg>
