<svg width="48" height="48" viewBox="0 0 48 48" fill="none" xmlns="http://www.w3.org/2000/svg">
<path fill-rule="evenodd" clip-rule="evenodd" d="M10.7427 5.98812V42.0134C10.7427 43.8001 12.1933 45.2507 13.98 45.2507H40.016C41.8027 45.2507 43.2533 43.8001 43.2533 42.0134V5.98812C43.2533 4.20145 41.8027 2.75073 40.016 2.75073H13.98C12.1933 2.75073 10.7427 4.20145 10.7427 5.98812Z" stroke="#081B4D" stroke-width="1.5" stroke-miterlimit="79.8403"/>
<path d="M10.5307 7.74276H6.984C5.19733 7.74276 3.74667 9.19339 3.74667 10.9801V37.0134C3.74667 38.8001 5.19733 40.2507 6.984 40.2507H10.5293" stroke="#081B4D" stroke-width="1.5" stroke-miterlimit="79.8403" stroke-linecap="round" stroke-linejoin="round"/>
<path d="M18 21L36 3" stroke="#081B4D" stroke-width="1.5" stroke-miterlimit="79.8403" stroke-linecap="round" stroke-linejoin="round"/>
<path d="M16 30L28 18" stroke="#081B4D" stroke-width="1.5" stroke-miterlimit="79.8403" stroke-linecap="round" stroke-linejoin="round"/>
<path d="M23 45L34 34" stroke="#081B4D" stroke-width="1.5" stroke-miterlimit="79.8403" stroke-linecap="round" stroke-linejoin="round"/>
</svg>
