<svg width="48" height="48" viewBox="0 0 48 48" fill="none" xmlns="http://www.w3.org/2000/svg">
<path fill-rule="evenodd" clip-rule="evenodd" d="M1.99805 33V38H24.9994C26.178 37.84 26.8714 37.2 26.9994 36V31H3.99938C2.74338 31.04 2.04205 31.6933 1.99805 33Z" stroke="#081B4D" stroke-width="1.5" stroke-miterlimit="79.8403" stroke-linecap="round"/>
<path fill-rule="evenodd" clip-rule="evenodd" d="M6.99805 26V31H29.9994C31.3474 30.9067 31.9647 30.2133 31.9994 29V24H8.99938C7.74338 24.0533 7.10338 24.76 6.99805 26Z" stroke="#081B4D" stroke-width="1.5" stroke-miterlimit="79.8403" stroke-linecap="round"/>
<path fill-rule="evenodd" clip-rule="evenodd" d="M11.998 19V24H34.9994C36.4047 23.9867 37.014 23.2667 36.9994 22V17H13.9994C12.7394 17.04 12.0727 17.7067 11.998 19Z" stroke="#081B4D" stroke-width="1.5" stroke-miterlimit="79.8403" stroke-linecap="round"/>
<path fill-rule="evenodd" clip-rule="evenodd" d="M16.998 11.9999V16.9999H39.9994C41.3394 17.0133 42.0394 16.3733 41.9994 14.9999V9.99992H18.9994C17.5727 10.0266 17.0434 10.8133 16.998 11.9999Z" stroke="#081B4D" stroke-width="1.5" stroke-miterlimit="79.8403" stroke-linecap="round"/>
<path d="M41 10H47" stroke="#081B4D" stroke-width="1.5" stroke-miterlimit="79.8403" stroke-linecap="round" stroke-linejoin="round"/>
<path d="M25 38H46" stroke="#081B4D" stroke-width="1.5" stroke-miterlimit="79.8403" stroke-linecap="round" stroke-linejoin="round"/>
</svg>
