<svg width="31" height="37" viewBox="0 0 31 37" fill="none" xmlns="http://www.w3.org/2000/svg">
<path d="M29.4623 16.461C29.7862 16.6644 30.0532 16.9467 30.2383 17.2814C30.4234 17.6162 30.5205 17.9925 30.5205 18.375C30.5205 18.7575 30.4234 19.1338 30.2383 19.4685C30.0532 19.8033 29.7862 20.0856 29.4623 20.289L4.03626 36.12C3.69772 36.3285 3.30948 36.4426 2.91193 36.4502C2.51438 36.4579 2.12204 36.3588 1.77574 36.1634C1.42944 35.968 1.14183 35.6834 0.942839 35.3391C0.743847 34.9949 0.640745 34.6036 0.644258 34.206L0.644258 2.54397C0.640745 2.14636 0.743847 1.75507 0.942839 1.41082C1.14183 1.06657 1.42944 0.781933 1.77574 0.586527C2.12204 0.391121 2.51438 0.292086 2.91193 0.299727C3.30948 0.307368 3.69772 0.421406 4.03626 0.629974L29.4623 16.461Z" fill="white"/>
</svg>
