<svg width="48" height="48" viewBox="0 0 48 48" fill="none" xmlns="http://www.w3.org/2000/svg">
<path fill-rule="evenodd" clip-rule="evenodd" d="M2.75 8.10653V32.8933C2.75 34.7466 4.25534 36.2532 6.10867 36.2532H41.8647C43.718 36.2532 45.2233 34.7466 45.2233 32.8933V8.10653C45.2233 6.25319 43.718 4.74666 41.8647 4.74666H6.10867C4.25534 4.74666 2.75 6.25319 2.75 8.10653Z" stroke="#081B4D" stroke-width="1.5" stroke-miterlimit="79.8403"/>
<path d="M28.7913 36.4135L29.2593 40.6134C29.4166 41.0934 29.7459 41.3868 30.1979 41.5201L34.8273 43.3601C35.6406 43.7601 35.8526 44.4134 35.7659 45.1868H12.7446C12.6579 44.4134 12.8699 43.7601 13.6833 43.3601L18.3126 41.5201C18.7646 41.3868 19.0939 41.0934 19.2513 40.6134L19.7193 36.4135" stroke="#081B4D" stroke-width="1.5" stroke-miterlimit="79.8403" stroke-linecap="round" stroke-linejoin="round"/>
<path d="M25 15H40" stroke="#081B4D" stroke-width="1.5" stroke-miterlimit="79.8403" stroke-linecap="round" stroke-linejoin="round"/>
<path d="M25 19H40" stroke="#081B4D" stroke-width="1.5" stroke-miterlimit="79.8403" stroke-linecap="round" stroke-linejoin="round"/>
<path d="M24.9941 25H34.2541" stroke="#081B4D" stroke-width="1.5" stroke-miterlimit="79.8403" stroke-linecap="round" stroke-linejoin="round"/>
<path fill-rule="evenodd" clip-rule="evenodd" d="M8.75 16.3066V24.6933C8.75 25.5466 9.44732 26.2532 10.3047 26.2532H18.6927C19.55 26.2532 20.2473 25.5466 20.2473 24.6933V16.3066C20.2473 15.4532 19.55 14.7598 18.6927 14.7598H10.3047C9.44732 14.7598 8.75 15.4532 8.75 16.3066Z" stroke="#081B4D" stroke-width="1.5" stroke-miterlimit="79.8403"/>
</svg>
