<svg width="48" height="48" viewBox="0 0 48 48" fill="none" xmlns="http://www.w3.org/2000/svg">
<path fill-rule="evenodd" clip-rule="evenodd" d="M2.74805 6.11987V41.88C2.74805 42.64 3.3587 43.24 4.1107 43.24H43.8854C44.6374 43.24 45.248 42.64 45.248 41.88V6.11987C45.248 5.35987 44.6374 4.75985 43.8854 4.75985H4.1107C3.3587 4.75985 2.74805 5.35987 2.74805 6.11987Z" stroke="#081B4D" stroke-width="1.5" stroke-miterlimit="79.8403"/>
<path d="M17 6.99992V41.2532" stroke="#081B4D" stroke-width="1.5" stroke-miterlimit="79.8403" stroke-linecap="round" stroke-linejoin="round"/>
<path d="M31 6.99992V41.2532" stroke="#081B4D" stroke-width="1.5" stroke-miterlimit="79.8403" stroke-linecap="round" stroke-linejoin="round"/>
<path fill-rule="evenodd" clip-rule="evenodd" d="M14.548 17.72L11.8253 17.04C11.4413 16.9467 11.0507 16.56 10.9547 16.1733L10.2747 13.4533C10.124 12.8533 9.876 12.8533 9.72534 13.4533L9.04532 16.1733C8.94932 16.56 8.55866 16.9467 8.17466 17.04L5.452 17.72C4.84933 17.88 4.84933 18.1199 5.452 18.2666L8.17466 18.96C8.55866 19.0533 8.94932 19.44 9.04532 19.8267L9.72534 22.5467C9.876 23.1467 10.124 23.1467 10.2747 22.5467L10.9547 19.8267C11.0507 19.44 11.4413 19.0533 11.8253 18.96L14.548 18.2666C15.1507 18.1199 15.1507 17.88 14.548 17.72Z" stroke="#081B4D" stroke-width="1.2" stroke-miterlimit="79.8403"/>
<path d="M28 13L21 21" stroke="#081B4D" stroke-width="1.5" stroke-miterlimit="79.8403" stroke-linecap="round" stroke-linejoin="round"/>
<path d="M7 43L24 23.5734" stroke="#081B4D" stroke-width="1.5" stroke-miterlimit="79.8403" stroke-linecap="round" stroke-linejoin="round"/>
<path d="M36.7505 30L44.9998 20.5734" stroke="#081B4D" stroke-width="1.5" stroke-miterlimit="79.8403" stroke-linecap="round" stroke-linejoin="round"/>
</svg>
