<svg width="24" height="21" viewBox="0 0 24 21" fill="none" xmlns="http://www.w3.org/2000/svg">
<path d="M0.414621 10.203L6.28362 13.128C6.39563 13.1837 6.51977 13.2106 6.64479 13.2062C6.76981 13.2019 6.89177 13.1664 6.99962 13.103L12.2236 10.066L9.06162 12.866C8.9821 12.9364 8.91843 13.0229 8.87481 13.1198C8.8312 13.2167 8.80864 13.3217 8.80862 13.428V20.253C8.80904 20.4102 8.85877 20.5633 8.95081 20.6907C9.04285 20.8181 9.17256 20.9135 9.32166 20.9633C9.47075 21.0131 9.63172 21.0149 9.78188 20.9683C9.93203 20.9218 10.0638 20.8294 10.1586 20.704L12.6956 17.331L18.9656 20.903C19.0685 20.9616 19.1837 20.9951 19.302 21.0006C19.4203 21.0061 19.5382 20.9836 19.646 20.9348C19.7539 20.8861 19.8487 20.8124 19.9227 20.72C19.9967 20.6276 20.0477 20.5189 20.0716 20.403L23.9846 0.902974C24.0111 0.771011 24.0015 0.634368 23.9569 0.507374C23.9124 0.38038 23.8345 0.267716 23.7314 0.181196C23.6283 0.094676 23.5038 0.0374891 23.371 0.0156328C23.2382 -0.00622361 23.102 0.00805594 22.9766 0.0569737L0.476621 8.82897C0.340539 8.88151 0.222702 8.97254 0.137503 9.09094C0.0523047 9.20935 0.00343292 9.35 -0.00314264 9.49572C-0.0097182 9.64145 0.0262871 9.78593 0.100475 9.91153C0.174664 10.0371 0.283823 10.1384 0.414621 10.203ZM22.2446 1.95397L18.8056 19.087L12.8606 15.703C12.702 15.6129 12.5161 15.5835 12.3375 15.6203C12.1589 15.6571 11.9997 15.7576 11.8896 15.903L10.3046 18.01V13.765L18.8556 6.18897C18.9949 6.06564 19.0834 5.89492 19.1039 5.70998C19.1244 5.52505 19.0754 5.3391 18.9665 5.18827C18.8575 5.03743 18.6964 4.93248 18.5144 4.89381C18.3324 4.85513 18.1425 4.88548 17.9816 4.97897L6.59162 11.603L2.59962 9.61197L22.2446 1.95397Z" fill="#081B4D"/>
</svg>
