<svg width="48" height="48" viewBox="0 0 48 48" fill="none" xmlns="http://www.w3.org/2000/svg">
<path fill-rule="evenodd" clip-rule="evenodd" d="M2.75 8.10653V32.8933C2.75 34.7466 4.25533 36.2532 6.10866 36.2532H41.8647C43.718 36.2532 45.2233 34.7466 45.2233 32.8933V8.10653C45.2233 6.25319 43.718 4.74666 41.8647 4.74666H6.10866C4.25533 4.74666 2.75 6.25319 2.75 8.10653Z" stroke="#081B4D" stroke-width="1.5" stroke-miterlimit="79.8403"/>
<path d="M28.7912 36.4135L29.2593 40.6134C29.4166 41.0934 29.7459 41.3868 30.1979 41.5201L34.8273 43.3601C35.6406 43.7601 35.8526 44.4134 35.7659 45.1868H12.7446C12.6579 44.4134 12.8699 43.7601 13.6832 43.3601L18.3126 41.5201C18.7646 41.3868 19.0939 41.0934 19.2512 40.6134L19.7192 36.4135" stroke="#081B4D" stroke-width="1.5" stroke-miterlimit="79.8403" stroke-linecap="round" stroke-linejoin="round"/>
<path fill-rule="evenodd" clip-rule="evenodd" d="M19.732 28.6666L31.268 21.9999C32.224 21.4533 32.224 20.5466 31.2693 19.9999L19.732 13.3333C18.7773 12.7866 18.0013 13.2399 18.0013 14.3333L18 27.6666C18 28.7599 18.776 29.2133 19.732 28.6666Z" stroke="#081B4D" stroke-width="1.5" stroke-miterlimit="79.8403"/>
</svg>
