<svg width="297" height="48" viewBox="0 0 297 48" fill="none" xmlns="http://www.w3.org/2000/svg">
<path d="M158.72 18.75H160L155.76 7.55002H154.7L150.48 18.75H151.76L152.976 15.502H157.5L158.72 18.75ZM153.408 14.35L155.232 9.39002L157.072 14.35H153.408ZM170.3 18.75L167.776 14.27C168.441 14.0279 169.016 13.5857 169.42 13.0041C169.824 12.4225 170.037 11.7301 170.032 11.022C170.039 10.56 169.953 10.1013 169.778 9.67364C169.603 9.24596 169.343 8.85818 169.014 8.53369C168.685 8.20921 168.294 7.95475 167.864 7.78569C167.434 7.61662 166.974 7.53645 166.512 7.55002H162.32V18.75H163.472V14.494H166.572L168.976 18.75H170.3ZM163.472 8.70202H166.512C166.819 8.69259 167.125 8.74616 167.411 8.85941C167.697 8.97267 167.956 9.14322 168.173 9.36056C168.391 9.57789 168.561 9.83742 168.675 10.1232C168.788 10.4089 168.841 10.7148 168.832 11.022C168.841 11.3292 168.788 11.6351 168.675 11.9209C168.561 12.2066 168.391 12.4661 168.173 12.6835C167.956 12.9008 167.697 13.0714 167.411 13.1846C167.125 13.2979 166.819 13.3514 166.512 13.342H163.472V8.70202ZM182.272 13.002H177.616V14.154H181.116V16.054C180.699 16.5753 180.171 16.9967 179.57 17.2874C178.97 17.5781 178.311 17.7307 177.644 17.734C177.056 17.7285 176.475 17.6049 175.936 17.3705C175.397 17.1361 174.91 16.7958 174.505 16.3697C174.1 15.9437 173.784 15.4405 173.577 14.8902C173.37 14.3398 173.276 13.7535 173.3 13.166C173.275 12.5772 173.369 11.9894 173.576 11.4376C173.783 10.8857 174.098 10.3813 174.505 9.95422C174.911 9.52717 175.399 9.18629 175.94 8.95191C176.48 8.71753 177.063 8.59445 177.652 8.59002C178.364 8.58692 179.066 8.76074 179.694 9.09586C180.323 9.43098 180.858 9.91691 181.252 10.51L182.276 10.01C181.79 9.22208 181.109 8.57261 180.299 8.12421C179.489 7.67582 178.578 7.44363 177.652 7.45002C176.911 7.45403 176.179 7.60582 175.497 7.8965C174.816 8.18717 174.199 8.6109 173.684 9.14285C173.168 9.6748 172.764 10.3043 172.495 10.9944C172.226 11.6846 172.097 12.4215 172.116 13.162C172.096 13.9026 172.225 14.6396 172.493 15.3299C172.762 16.0203 173.166 16.65 173.681 17.1824C174.196 17.7147 174.812 18.1389 175.494 18.43C176.175 18.7212 176.907 18.8735 177.648 18.878C178.574 18.8833 179.485 18.6507 180.295 18.2024C181.104 17.7541 181.785 17.1052 182.272 16.318V13.002ZM185.9 17.598V13.726H191.6V12.574H185.9V8.70202H192.1V7.55002H184.752V18.75H192.192V17.598H185.9ZM202.192 7.55002V16.606L195.892 7.55002H194.832V18.75H195.984V9.66202L202.288 18.75H203.344V7.55002H202.192ZM213.616 7.55002H205.5V8.70202H208.988V18.75H210.14V8.70202H213.612L213.616 7.55002ZM222.864 7.55002V14.35C222.864 16.542 221.564 17.726 219.904 17.726C218.244 17.726 216.848 16.59 216.848 14.35V7.55002H215.7V14.302C215.7 17.502 217.6 18.878 219.908 18.878C222.216 18.878 224.02 17.438 224.02 14.254V7.55402L222.864 7.55002ZM236.736 7.55002L232.3 14.526L227.888 7.55002H226.816V18.75H227.984V9.77402L231.9 15.95H232.684L236.64 9.77402V18.75H237.808V7.55002H236.736ZM151.04 27.55V38.75H152.192V27.55H151.04ZM162.272 27.55V36.606L155.968 27.55H154.912V38.75H156.064V29.662L162.368 38.75H163.424V27.55H162.272ZM171.424 27.45C170.688 27.456 169.961 27.6098 169.286 27.9025C168.611 28.1951 168.001 28.6204 167.494 29.1533C166.986 29.6862 166.591 30.3157 166.332 31.0043C166.072 31.693 165.954 32.4268 165.984 33.162C165.947 33.8986 166.059 34.635 166.315 35.3266C166.572 36.0182 166.966 36.6505 167.474 37.185C167.982 37.7196 168.593 38.1452 169.271 38.4361C169.949 38.7269 170.678 38.8769 171.416 38.8769C172.153 38.8769 172.883 38.7269 173.561 38.4361C174.239 38.1452 174.85 37.7196 175.358 37.185C175.866 36.6505 176.26 36.0182 176.517 35.3266C176.773 34.635 176.885 33.8986 176.848 33.162C176.88 32.4276 176.763 31.6944 176.506 31.006C176.248 30.3176 175.854 29.6881 175.348 29.1551C174.842 28.6221 174.234 28.1964 173.559 27.9035C172.885 27.6105 172.159 27.4563 171.424 27.45ZM171.424 37.738C170.84 37.7314 170.263 37.606 169.728 37.3696C169.194 37.1332 168.713 36.7906 168.315 36.3626C167.917 35.9347 167.61 35.4303 167.413 34.8801C167.216 34.3299 167.132 33.7454 167.168 33.162C167.128 32.5794 167.208 31.9947 167.404 31.4444C167.599 30.8941 167.906 30.3899 168.304 29.963C168.703 29.5361 169.185 29.1958 169.721 28.9631C170.256 28.7304 170.834 28.6103 171.418 28.6103C172.002 28.6103 172.58 28.7304 173.115 28.9631C173.651 29.1958 174.133 29.5361 174.532 29.963C174.93 30.3899 175.237 30.8941 175.432 31.4444C175.628 31.9947 175.708 32.5794 175.668 33.162C175.705 33.7448 175.622 34.3289 175.426 34.879C175.23 35.4291 174.925 35.9335 174.528 36.3619C174.131 36.7902 173.651 37.1334 173.118 37.3706C172.584 37.6079 172.008 37.7342 171.424 37.742V37.738ZM186.544 27.55L183.024 36.91L179.5 27.55H178.2L182.5 38.75H183.556L187.824 27.55H186.544ZM196.064 38.75H197.344L193.1 27.55H192.048L187.824 38.75H189.1L190.316 35.502H194.844L196.064 38.75ZM190.752 34.35L192.576 29.39L194.416 34.35H190.752ZM205.776 27.55H197.664V28.702H201.152V38.75H202.3V28.702H205.772L205.776 27.55ZM208.096 27.55V38.75H209.248V27.55H208.096ZM217.248 27.45C216.512 27.456 215.785 27.6098 215.11 27.9025C214.435 28.1951 213.825 28.6204 213.318 29.1533C212.81 29.6862 212.415 30.3157 212.156 31.0043C211.896 31.693 211.778 32.4268 211.808 33.162C211.771 33.8986 211.883 34.635 212.139 35.3266C212.396 36.0182 212.79 36.6505 213.298 37.185C213.806 37.7196 214.417 38.1452 215.095 38.4361C215.773 38.7269 216.502 38.8769 217.24 38.8769C217.977 38.8769 218.707 38.7269 219.385 38.4361C220.063 38.1452 220.674 37.7196 221.182 37.185C221.69 36.6505 222.084 36.0182 222.341 35.3266C222.597 34.635 222.709 33.8986 222.672 33.162C222.704 32.4276 222.587 31.6944 222.33 31.006C222.072 30.3176 221.678 29.6881 221.172 29.1551C220.666 28.6221 220.058 28.1964 219.383 27.9035C218.709 27.6105 217.983 27.4563 217.248 27.45ZM217.248 37.738C216.664 37.7314 216.087 37.606 215.552 37.3696C215.018 37.1332 214.537 36.7906 214.139 36.3626C213.741 35.9347 213.434 35.4303 213.237 34.8801C213.04 34.3299 212.956 33.7454 212.992 33.162C212.952 32.5794 213.032 31.9947 213.228 31.4444C213.423 30.8941 213.73 30.3899 214.128 29.963C214.527 29.5361 215.009 29.1958 215.545 28.9631C216.08 28.7304 216.658 28.6103 217.242 28.6103C217.826 28.6103 218.404 28.7304 218.939 28.9631C219.475 29.1958 219.957 29.5361 220.356 29.963C220.754 30.3899 221.061 30.8941 221.256 31.4444C221.452 31.9947 221.532 32.5794 221.492 33.162C221.529 33.7448 221.446 34.3289 221.25 34.879C221.054 35.4291 220.749 35.9335 220.352 36.3619C219.955 36.7902 219.475 37.1334 218.942 37.3706C218.408 37.6079 217.832 37.7342 217.248 37.742V37.738ZM232.592 27.55V36.606L226.288 27.55H225.232V38.75H226.384V29.662L232.688 38.75H233.744V27.55H232.592ZM251.584 33.006H246.928V34.158H250.428V36.058C250.011 36.5793 249.483 37.0007 248.882 37.2914C248.282 37.5821 247.623 37.7347 246.956 37.738C246.367 37.7336 245.784 37.6105 245.244 37.3761C244.703 37.1418 244.215 36.8009 243.809 36.3738C243.402 35.9468 243.087 35.4423 242.88 34.8905C242.673 34.3387 242.579 33.7508 242.604 33.162C242.579 32.5732 242.674 31.9855 242.881 31.4339C243.089 30.8823 243.405 30.3781 243.812 29.9514C244.218 29.5247 244.706 29.1843 245.247 28.9504C245.788 28.7165 246.371 28.5939 246.96 28.59C247.672 28.5869 248.374 28.7607 249.002 29.0959C249.631 29.431 250.166 29.9169 250.56 30.51L251.584 30.01C251.098 29.2221 250.417 28.5726 249.607 28.1242C248.797 27.6758 247.886 27.4436 246.96 27.45C246.219 27.454 245.487 27.6058 244.805 27.8965C244.124 28.1872 243.507 28.6109 242.992 29.1428C242.476 29.6748 242.072 30.3043 241.803 30.9944C241.534 31.6846 241.405 32.4215 241.424 33.162C241.405 33.9026 241.534 34.6395 241.803 35.3296C242.072 36.0198 242.476 36.6492 242.992 37.1812C243.507 37.7131 244.124 38.1369 244.805 38.4275C245.487 38.7182 246.219 38.87 246.96 38.874C247.885 38.8793 248.797 38.6467 249.607 38.1984C250.416 37.7501 251.097 37.1012 251.584 36.314V33.006ZM262.128 38.75L259.6 34.27C260.366 33.9838 261.006 33.4365 261.407 32.7245C261.809 32.0125 261.946 31.1816 261.795 30.3782C261.644 29.5749 261.214 28.8507 260.581 28.3333C259.949 27.8158 259.153 27.5385 258.336 27.55H254.144V38.75H255.3V34.494H258.4L260.8 38.75H262.128ZM255.3 28.702H258.34C258.647 28.6926 258.953 28.7462 259.239 28.8594C259.525 28.9727 259.784 29.1432 260.001 29.3606C260.219 29.5779 260.389 29.8374 260.503 30.1232C260.616 30.4089 260.669 30.7148 260.66 31.022C260.669 31.3292 260.616 31.6351 260.503 31.9209C260.389 32.2066 260.219 32.4661 260.001 32.6835C259.784 32.9008 259.525 33.0714 259.239 33.1846C258.953 33.2979 258.647 33.3514 258.34 33.342H255.3V28.702ZM269.376 27.45C268.64 27.456 267.913 27.6098 267.238 27.9025C266.563 28.1951 265.953 28.6204 265.446 29.1533C264.938 29.6862 264.543 30.3157 264.284 31.0043C264.024 31.693 263.906 32.4268 263.936 33.162C263.899 33.8986 264.011 34.635 264.267 35.3266C264.524 36.0182 264.918 36.6505 265.426 37.185C265.934 37.7196 266.545 38.1452 267.223 38.4361C267.901 38.7269 268.63 38.8769 269.368 38.8769C270.105 38.8769 270.835 38.7269 271.513 38.4361C272.191 38.1452 272.802 37.7196 273.31 37.185C273.818 36.6505 274.212 36.0182 274.469 35.3266C274.725 34.635 274.837 33.8986 274.8 33.162C274.832 32.4276 274.715 31.6944 274.458 31.006C274.2 30.3176 273.806 29.6881 273.3 29.1551C272.794 28.6221 272.186 28.1964 271.511 27.9035C270.837 27.6105 270.111 27.4563 269.376 27.45ZM269.376 37.738C268.792 37.7314 268.215 37.606 267.68 37.3696C267.146 37.1332 266.665 36.7906 266.267 36.3626C265.869 35.9347 265.562 35.4303 265.365 34.8801C265.168 34.3299 265.084 33.7454 265.12 33.162C265.08 32.5794 265.16 31.9947 265.356 31.4444C265.551 30.8941 265.858 30.3899 266.256 29.963C266.655 29.5361 267.137 29.1958 267.673 28.9631C268.208 28.7304 268.786 28.6103 269.37 28.6103C269.954 28.6103 270.532 28.7304 271.067 28.9631C271.603 29.1958 272.085 29.5361 272.484 29.963C272.882 30.3899 273.189 30.8941 273.384 31.4444C273.58 31.9947 273.66 32.5794 273.62 33.162C273.657 33.7448 273.574 34.3289 273.378 34.879C273.182 35.4291 272.877 35.9335 272.48 36.3619C272.083 36.7902 271.603 37.1334 271.07 37.3706C270.536 37.6079 269.96 37.7342 269.376 37.742V37.738ZM284.448 27.55V34.35C284.448 36.542 283.148 37.726 281.488 37.726C279.828 37.726 278.432 36.59 278.432 34.35V27.55H277.28V34.302C277.28 37.502 279.18 38.878 281.488 38.878C283.796 38.878 285.6 37.438 285.6 34.254V27.55H284.448ZM292.608 27.55H288.4V38.75H289.568V34.494H292.608C293.067 34.5012 293.523 34.4166 293.949 34.245C294.375 34.0734 294.763 33.8184 295.089 33.4949C295.415 33.1714 295.673 32.786 295.848 32.3614C296.023 31.9367 296.112 31.4813 296.108 31.022C296.117 30.5612 296.032 30.1034 295.859 29.6763C295.686 29.2491 295.428 28.8615 295.101 28.537C294.774 28.2124 294.384 27.9576 293.956 27.7879C293.527 27.6183 293.069 27.5374 292.608 27.55ZM292.608 33.342H289.568V28.702H292.608C292.914 28.6935 293.219 28.7478 293.503 28.8616C293.787 28.9754 294.045 29.1464 294.261 29.3638C294.476 29.5812 294.645 29.8406 294.756 30.1258C294.867 30.411 294.919 30.716 294.908 31.022C294.918 31.3276 294.865 31.632 294.753 31.9166C294.641 32.2011 294.473 32.4599 294.257 32.677C294.042 32.8941 293.785 33.0651 293.501 33.1795C293.218 33.2938 292.914 33.3491 292.608 33.342Z" fill="#081B4D"/>
<path d="M132.5 1.25V47.25" stroke="#94B5D3"/>
<path d="M103.612 19.364H112.507V45.164H103.612V41.6C100.114 44.0895 95.9871 45.5466 91.7015 45.8054C87.4159 46.0642 83.1437 45.1143 79.3716 43.0638C75.5994 41.0133 72.4789 37.9447 70.3655 34.2075C68.252 30.4703 67.2306 26.2146 67.4175 21.9253C67.6044 17.6359 68.992 13.4852 71.4225 9.94599C73.853 6.40674 77.2286 3.62117 81.1648 1.90653C85.101 0.191898 89.4395 -0.382881 93.6864 0.247661C97.9333 0.878202 101.918 2.68872 105.186 5.47301L98.344 12.247C96.007 10.5175 93.1773 9.58247 90.27 9.57901C88.5255 9.56553 86.7963 9.90395 85.1856 10.574C83.575 11.2441 82.116 12.2322 80.896 13.479C79.0311 15.341 77.7594 17.7135 77.2412 20.2974C76.723 22.8812 76.9815 25.5606 77.9842 27.9977C78.9868 30.4348 80.6887 32.5204 82.8751 33.9916C85.0616 35.4627 87.6347 36.2534 90.27 36.264C93.8059 36.247 97.1948 34.8473 99.7119 32.364C100.955 31.1723 101.995 29.7858 102.791 28.259H92.528V19.359L103.612 19.364ZM103.544 28.264L103.612 28.332V28.264H103.544Z" fill="#081B4D"/>
<path d="M51.574 0.684021H62.248V45.156H51.574V0.684021Z" fill="#081B4D"/>
<path fill-rule="evenodd" clip-rule="evenodd" d="M62.248 0.684021L51.574 9.13002V0.684021H62.248Z" fill="#DBDBDB"/>
<path d="M35.511 45.156L32.3 38.932H15.532L12.316 45.156H0L23.948 0.684021L47.827 45.156H35.511ZM19.843 30.585H27.985L23.948 22.785L19.843 30.585Z" fill="#081B4D"/>
</svg>
