<svg width="80" height="81" viewBox="0 0 80 81" fill="none" xmlns="http://www.w3.org/2000/svg">
<path opacity="0.204" d="M40 0.979004C47.9113 0.979004 55.6448 3.32496 62.2228 7.72022C68.8008 12.1155 73.9277 18.3626 76.9552 25.6717C79.9827 32.9807 80.7748 41.0234 79.2314 48.7826C77.688 56.5419 73.8784 63.6692 68.2843 69.2633C62.6902 74.8574 55.5629 78.667 47.8036 80.2104C40.0444 81.7538 32.0017 80.9617 24.6927 77.9342C17.3836 74.9067 11.1365 69.7798 6.74122 63.2018C2.34596 56.6238 0 48.8903 0 40.979C0 30.3703 4.21427 20.1962 11.7157 12.6947C19.2172 5.19328 29.3913 0.979004 40 0.979004Z" fill="white"/>
<path d="M53.4612 39.5279C53.7075 39.6827 53.9105 39.8974 54.0511 40.1519C54.1918 40.4065 54.2656 40.6926 54.2656 40.9834C54.2656 41.2743 54.1918 41.5604 54.0511 41.8149C53.9105 42.0695 53.7075 42.2842 53.4612 42.4389L34.1212 54.4729C33.8638 54.6317 33.5686 54.7185 33.2662 54.7244C32.9638 54.7303 32.6654 54.6551 32.402 54.5065C32.1386 54.358 31.9198 54.1415 31.7684 53.8797C31.617 53.6179 31.5386 53.3203 31.5412 53.0179V28.9399C31.5386 28.6375 31.617 28.34 31.7684 28.0782C31.9198 27.8164 32.1386 27.5999 32.402 27.4514C32.6654 27.3028 32.9638 27.2276 33.2662 27.2335C33.5686 27.2394 33.8638 27.3262 34.1212 27.4849L53.4612 39.5279Z" fill="white"/>
</svg>
